#!OML:ASF H:\Terrain\Patient Classification 1\Takeo\Monday\TakeoMonday.ASF
:FULLY-SPECIFIED
:DEGREES
1266
root 17.6591 17.7644 1.81624 -3.66695 -24.241 -0.707774
lowerback 2.78651 6.66387 3.58929
upperback 1.30532 8.96825 1.35843
thorax 0.123739 4.49438 -0.794792
lowerneck -13.4737 -6.02049 -4.2923
upperneck 5.48892 -8.34244 10.8708
head 4.49818 -3.59157 3.38048
rclavicle 3.32157e-014 4.37326e-015
rhumerus 70.3035 56.8222 -42.9889
rradius 68.9517
rwrist -37.6616
rhand -38.9131 32.6316
rfingers 7.12502
rthumb -11.9198 2.99094
lclavicle 3.32157e-014 4.37326e-015
lhumerus 3.35352 -3.90465 65.2317
lradius 108.192
lwrist 29.0822
lhand -26.2996 27.5677
lfingers 7.12502
lthumb 0.256371 57.5472
rfemur 14.0967 -2.51303 10.0736
rtibia 34.6368
rfoot 20.0302 -24.969
rtoes -9.95558
lfemur -5.3455 -14.0103 -23.6763
ltibia 26.3539
lfoot -11.9944 -0.558621
ltoes 3.72617
1267
root 17.6565 17.7702 1.82336 -3.79071 -24.4673 -0.584555
lowerback 2.74002 6.64588 3.42384
upperback 1.3945 8.93567 1.33313
thorax 0.218821 4.47988 -0.719401
lowerneck -13.3877 -5.82537 -4.56815
upperneck 5.02645 -8.0208 11.1812
head 4.34421 -3.43966 3.55606
rclavicle -6.10766e-014 7.15625e-015
rhumerus 68.5747 57.2831 -43.8537
rradius 69.0648
rwrist -37.5701
rhand -38.6607 33.2646
rfingers 7.12502
rthumb -11.6765 3.61001
lclavicle -6.10766e-014 7.15625e-015
lhumerus 2.6333 -4.71694 66.0051
lradius 108.08
lwrist 29.2584
lhand -26.5596 27.638
lfingers 7.12502
lthumb 0.00530017 57.6178
rfemur 14.3163 -2.53563 9.77542
rtibia 34.3629
rfoot 20.4433 -24.1315
rtoes -11.0472
lfemur -5.17219 -14.2047 -23.8684
ltibia 26.2799
lfoot -11.9523 -0.193205
ltoes 4.63714
1268
root 17.6541 17.7767 1.82748 -3.86055 -24.6801 -0.411264
lowerback 2.67009 6.65036 3.20574
upperback 1.50369 8.93074 1.28154
thorax 0.344744 4.47937 -0.638168
lowerneck -13.6977 -5.86496 -4.76396
upperneck 4.83576 -8.00907 11.1321
head 4.34039 -3.43627 3.56824
rclavicle -1.39242e-014 1.51076e-014
rhumerus 67.1378 57.6442 -44.3191
rradius 69.0321
rwrist -37.4453
rhand -38.468 32.721
rfingers 7.12502
rthumb -11.4906 3.05591
lclavicle -1.39242e-014 1.51076e-014
lhumerus 2.03651 -5.4377 66.8325
lradius 107.895
lwrist 29.5112
lhand -26.4521 27.8535
lfingers 7.12502
lthumb 0.109085 57.8333
rfemur 14.4749 -2.4836 9.45188
rtibia 34.0956
rfoot 19.7482 -24.5134
rtoes -8.79491
lfemur -5.12468 -14.1807 -24.0847
ltibia 26.2733
lfoot -12.0146 0.0363478
ltoes 3.59691
1269
root 17.653 17.7796 1.82694 -3.70009 -24.9264 -0.768549
lowerback 2.6301 6.58464 3.4406
upperback 1.50517 8.8459 1.32905
thorax 0.39357 4.43867 -0.708393
lowerneck -13.658 -5.78589 -4.59348
upperneck 4.53393 -7.87996 10.8755
head 4.21204 -3.39379 3.47646
rclavicle -3.9086e-014 8.74653e-015
rhumerus 65.9144 58.1647 -44.7945
rradius 68.6573
rwrist -37.7755
rhand -38.1414 34.543
rfingers 7.12502
rthumb -11.1757 4.86061
lclavicle -3.9086e-014 8.74653e-015
lhumerus 1.25173 -6.08927 67.5027
lradius 107.734
lwrist 29.658
lhand -26.5378 27.9918
lfingers 7.12502
lthumb 0.0263119 57.9716
rfemur 14.5892 -2.5866 9.62324
rtibia 33.7928
rfoot 18.9603 -25.0444
rtoes -6.75024
lfemur -5.18544 -14.1085 -23.745
ltibia 26.3911
lfoot -12.1009 0.300002
ltoes 3.15027
1270
root 17.6499 17.7868 1.81509 -3.23915 -25.2829 -1.63578
lowerback 2.60387 6.49387 3.997
upperback 1.3522 8.73942 1.55243
thorax 0.294975 4.38378 -0.786287
lowerneck -13.6861 -5.68548 -4.39124
upperneck 4.70474 -7.76403 10.5525
head 4.2363 -3.34506 3.35288
rclavicle -6.09399e-014 -1.07344e-014
rhumerus 64.2232 58.9319 -45.8945
rradius 68.5306
rwrist -37.7173
rhand -38.145 35.1757
rfingers 7.12502
rthumb -11.1792 5.49356
lclavicle -6.09399e-014 -1.07344e-014
lhumerus 0.207164 -6.66476 68.2304
lradius 107.503
lwrist 29.4087
lhand -26.9108 27.5224
lfingers 7.12502
lthumb -0.33391 57.5019
rfemur 14.5126 -2.54864 10.477
rtibia 33.4465
rfoot 18.9962 -25.2329
rtoes -6.7984
lfemur -5.44444 -13.9872 -22.7822
ltibia 26.6413
lfoot -12.2028 0.494113
ltoes 3.42949
1271
root 17.643 17.8012 1.8035 -2.783 -25.6861 -2.41801
lowerback 2.57574 6.44022 4.44025
upperback 1.21914 8.68006 1.76006
thorax 0.204589 4.35146 -0.818644
lowerneck -14.1513 -5.68887 -4.1299
upperneck 5.24492 -7.8074 10.0971
head 4.44825 -3.35729 3.15254
rclavicle -4.23039e-015 -1.59028e-015
rhumerus 61.9566 59.6587 -47.5464
rradius 68.9257
rwrist -36.9219
rhand -38.2579 31.4521
rfingers 7.12502
rthumb -11.2881 1.77585
lclavicle -4.23039e-015 -1.59028e-015
lhumerus -0.763914 -7.2672 68.9139
lradius 107.216
lwrist 29.0713
lhand -27.101 27.3809
lfingers 7.12502
lthumb -0.51767 57.3601
rfemur 14.4096 -2.48785 11.2626
rtibia 33.0878
rfoot 19.6576 -24.8232
rtoes -7.43391
lfemur -5.74219 -13.6592 -21.8767
ltibia 26.966
lfoot -12.4174 0.49815
ltoes 2.03638
1272
root 17.642 17.803 1.81224 -2.98414 -26.0289 -2.21169
lowerback 2.64135 6.39969 4.23632
upperback 1.2496 8.62455 1.63836
thorax 0.185641 4.32375 -0.838624
lowerneck -14.3604 -5.58414 -3.76857
upperneck 5.19828 -7.69052 9.76654
head 4.43015 -3.30655 2.99961
rclavicle -6.81272e-014 -1.03368e-014
rhumerus 59.2387 60.2265 -49.7182
rradius 69.1614
rwrist -36.0126
rhand -38.3502 29.1991
rfingers 7.12502
rthumb -11.377 -0.472228
lclavicle -6.81272e-014 -1.03368e-014
lhumerus -1.57865 -7.9089 69.48
lradius 106.923
lwrist 28.8666
lhand -27.0555 27.3889
lfingers 7.12502
lthumb -0.473681 57.3681
rfemur 14.6915 -2.79002 10.6621
rtibia 32.7879
rfoot 20.4006 -23.5226
rtoes -9.17412
lfemur -5.62062 -13.4917 -22.1487
ltibia 27.1704
lfoot -12.7473 0.746058
ltoes 0.247599
1273
root 17.6484 17.7955 1.82618 -3.40449 -26.2833 -1.74558
lowerback 2.75642 6.35809 3.94338
upperback 1.38103 8.56424 1.43781
thorax 0.242174 4.2961 -0.888651
lowerneck -14.2329 -5.36145 -3.64466
upperneck 4.6004 -7.36496 9.76449
head 4.19953 -3.16507 3.01618
rclavicle -7.89734e-014 1.59028e-015
rhumerus 56.5839 60.6558 -51.8186
rradius 69.2394
rwrist -35.0567
rhand -39.2053 29.1412
rfingers 7.12502
rthumb -12.2016 -0.482959
lclavicle -7.89734e-014 1.59028e-015
lhumerus -2.24741 -8.43063 70.147
lradius 106.566
lwrist 28.7845
lhand -26.8878 26.9081
lfingers 7.12502
lthumb -0.311689 56.8876
rfemur 15.0673 -2.77218 9.91644
rtibia 32.5899
rfoot 20.5427 -22.6661
rtoes -11.7869
lfemur -5.31097 -13.6325 -22.7619
ltibia 27.1865
lfoot -12.8669 1.16046
ltoes 0.669863
1274
root 17.6493 17.7948 1.83351 -3.55563 -26.3816 -1.45734
lowerback 2.71551 6.29139 3.6368
upperback 1.44669 8.46473 1.34207
thorax 0.298127 4.24709 -0.811459
lowerneck -14.0003 -5.13943 -3.75109
upperneck 3.90268 -7.00452 9.88806
head 3.93361 -3.0095 3.11279
rclavicle 2.30124e-014 -1.98785e-015
rhumerus 54.3185 61.0024 -53.4264
rradius 69.3606
rwrist -34.6035
rhand -39.8119 28.9407
rfingers 7.12502
rthumb -12.7865 -0.647724
lclavicle 2.30124e-014 -1.98785e-015
lhumerus -2.93635 -8.98775 70.9507
lradius 106.218
lwrist 28.5672
lhand -26.6952 26.4881
lfingers 7.12502
lthumb -0.125684 56.4678
rfemur 15.1802 -2.3633 9.74049
rtibia 32.4716
rfoot 20.4007 -22.5908
rtoes -12.3609
lfemur -5.23161 -13.7846 -23.0954
ltibia 27.1231
lfoot -12.8642 1.27386
ltoes 2.76833
1275
root 17.6489 17.7967 1.83435 -3.52645 -26.5042 -1.10317
lowerback 2.56945 6.27855 3.25587
upperback 1.4668 8.43303 1.21338
thorax 0.363016 4.23109 -0.71884
lowerneck -14.4124 -5.11493 -3.67263
upperneck 3.84542 -6.94096 9.52744
head 3.95889 -2.9859 2.9878
rclavicle -4.89072e-014 7.15625e-015
rhumerus 52.0827 61.1348 -54.9679
rradius 69.3567
rwrist -34.5324
rhand -39.3795 29.1869
rfingers 7.12502
rthumb -12.3696 -0.427152
lclavicle -4.89072e-014 7.15625e-015
lhumerus -3.59306 -9.70084 71.8423
lradius 105.907
lwrist 28.2038
lhand -26.5263 26.4874
lfingers 7.12502
lthumb 0.0373822 56.4672
rfemur 15.0533 -2.14308 9.43745
rtibia 32.3862
rfoot 20.3009 -22.3696
rtoes -11.5551
lfemur -5.41552 -13.7724 -23.4057
ltibia 27.0732
lfoot -12.845 1.29789
ltoes 3.64133
1276
root 17.6539 17.7975 1.83668 -3.33589 -26.7353 -1.16209
lowerback 2.35487 6.26176 3.32607
upperback 1.53124 8.40086 1.18538
thorax 0.561649 4.21887 -0.752616
lowerneck -15.2323 -5.16816 -3.45875
upperneck 4.28515 -7.01923 8.95639
head 4.19654 -3.01831 2.75247
rclavicle 1.41261e-014 1.19271e-015
rhumerus 49.9732 61.3067 -56.4093
rradius 69.3017
rwrist -34.1925
rhand -38.8632 29.3277
rfingers 7.12502
rthumb -11.8717 -0.315739
lclavicle 1.41261e-014 1.19271e-015
lhumerus -4.36785 -10.2442 72.7266
lradius 105.671
lwrist 27.937
lhand -26.4783 26.7538
lfingers 7.12502
lthumb 0.0837676 56.7335
rfemur 14.9551 -2.05792 9.39511
rtibia 32.3122
rfoot 19.6614 -22.3561
rtoes -10.3121
lfemur -5.53327 -13.8135 -23.3493
ltibia 27.0242
lfoot -12.7417 1.58061
ltoes 3.25066
1277
root 17.6575 17.7894 1.84466 -3.30779 -26.9098 -1.19011
lowerback 2.17951 6.1108 3.20707
upperback 1.53148 8.19027 1.24842
thorax 0.625421 4.11316 -0.604234
lowerneck -15.2571 -4.93188 -3.25273
upperneck 4.2564 -6.71185 8.66141
head 4.15328 -2.8807 2.65608
rclavicle 6.58754e-014 -3.97569e-016
rhumerus 48.1034 61.9196 -57.7084
rradius 69.2183
rwrist -34.0087
rhand -38.3358 29.4474
rfingers 7.12502
rthumb -11.3632 -0.224781
lclavicle 6.58754e-014 -3.97569e-016
lhumerus -5.50431 -10.5551 73.5349
lradius 105.436
lwrist 27.5303
lhand -26.8496 26.709
lfingers 7.12502
lthumb -0.274865 56.6886
rfemur 15.0289 -2.02159 9.28046
rtibia 32.2431
rfoot 19.3219 -22.0291
rtoes -10.2236
lfemur -5.44698 -13.96 -23.4143
ltibia 27.0292
lfoot -12.7769 2.02111
ltoes 2.50542
1278
root 17.6566 17.7702 1.85329 -3.60445 -27.0797 -0.681183
lowerback 2.1706 5.99579 2.61748
upperback 1.53085 8.02861 1.16757
thorax 0.554522 4.0279 -0.369802
lowerneck -14.8788 -4.64083 -3.22857
upperneck 3.74034 -6.29079 8.61703
head 3.90728 -2.69844 2.68557
rclavicle -4.89352e-014 1.59028e-015
rhumerus 46.1528 62.4576 -59.0522
rradius 69.1653
rwrist -33.8045
rhand -37.8164 29.4415
rfingers 7.12502
rthumb -10.8621 -0.257627
lclavicle -4.89352e-014 1.59028e-015
lhumerus -6.55811 -11.0861 74.3448
lradius 105.209
lwrist 26.9182
lhand -27.2681 26.8187
lfingers 7.12502
lthumb -0.679057 56.7974
rfemur 15.2104 -1.85311 8.69652
rtibia 32.108
rfoot 19.7655 -20.9454
rtoes -12.213
lfemur -5.36391 -14 -24.0062
ltibia 27.1773
lfoot -12.922 2.34114
ltoes 1.6825
1279
root 17.6541 17.7611 1.86092 -3.73709 -27.2912 -0.473729
lowerback 2.20507 5.93616 2.39525
upperback 1.52447 7.94747 1.06577
thorax 0.510881 3.98595 -0.357393
lowerneck -14.4426 -4.46949 -3.47305
upperneck 3.01711 -6.0047 9.01298
head 3.62283 -2.56983 2.88242
rclavicle 3.51228e-014 6.36111e-015
rhumerus 43.7549 62.7152 -60.8758
rradius 69.1585
rwrist -33.3114
rhand -37.8243 29.3978
rfingers 7.12502
rthumb -10.8698 -0.300904
lclavicle 3.51228e-014 6.36111e-015
lhumerus -7.54397 -11.7346 75.1298
lradius 105.066
lwrist 26.2814
lhand -27.554 27.2854
lfingers 7.12502
lthumb -0.955111 57.263
rfemur 15.3664 -1.43873 8.58152
rtibia 31.9061
rfoot 20.0828 -20.4114
rtoes -13.6225
lfemur -5.38874 -13.84 -24.2293
ltibia 27.3937
lfoot -13.0624 2.41954
ltoes 1.14695
